<svg viewBox="0 0 326 326" fill="none" xmlns="http://www.w3.org/2000/svg"><mask id="mask0" mask-type="alpha" maskUnits="userSpaceOnUse" x="0" y="-13" width="326" height="339"><rect y="-13" width="326" height="338.66" rx="9.49515" fill="#FFCC00"/></mask><g mask="url(#mask0)"><rect x="107.867" y="236.663" width="59.9301" height="28.3815" rx="14.1907" transform="rotate(35.7487 107.867 236.663)" fill="#A46648"/><rect x="87.6484" y="241.416" width="28.7324" height="9.92575" rx="4.96287" transform="rotate(3.19492 87.6484 241.416)" fill="#A46648"/><rect x="116.383" y="232.962" width="26.6094" height="9.92575" rx="4.96287" transform="rotate(58.5921 116.383 232.962)" fill="#A46648"/><circle cx="231.636" cy="162.691" r="12.7214" transform="rotate(-6.24885 231.636 162.691)" fill="#A46648"/><rect x="119.965" y="83.2268" width="87.9902" height="53.8361" transform="rotate(-6.24885 119.965 83.2268)" fill="#3D3D3D"/><path d="M146.371 121.053C136.462 132.818 118.892 134.324 107.126 124.415L96.9203 115.82C85.1546 105.912 83.6492 88.341 93.5579 76.5752L103.168 65.1635C113.077 53.3978 130.648 51.8924 142.414 61.8011L152.619 70.3959C164.385 80.3046 165.89 97.8752 155.982 109.641L146.371 121.053Z" fill="#3D3D3D"/><path d="M198.362 114.956C210.582 124.299 228.062 121.967 237.405 109.747L245.509 99.1469C254.851 86.9269 252.519 69.4468 240.299 60.1041L228.446 51.0426C216.226 41.6999 198.746 44.0324 189.404 56.2525L181.3 66.8521C171.957 79.0721 174.29 96.5522 186.51 105.895L198.362 114.956Z" fill="#3D3D3D"/><path d="M127.231 59.9408C125.557 44.6499 136.595 30.8968 151.886 29.2225L171.896 27.0315C187.187 25.3572 200.94 36.3956 202.614 51.6866L204.427 68.2436C206.101 83.5346 195.063 97.2876 179.772 98.9619L159.762 101.153C144.471 102.827 130.718 91.7888 129.044 76.4979L127.231 59.9408Z" fill="#3D3D3D"/><rect x="161.406" y="216.54" width="43.6164" height="28.6075" transform="rotate(7.06511 161.406 216.54)" fill="#FFAB33"/><path d="M207.514 121.323C219.227 120.041 229.762 128.496 231.045 140.21L236.851 193.231C238.358 206.995 228.422 219.373 214.659 220.88L153.154 227.615C139.391 229.122 127.012 219.187 125.505 205.424L119.699 152.402C118.417 140.688 126.872 130.153 138.586 128.871L207.514 121.323Z" fill="#A46648"/><rect x="188.863" y="144.969" width="28.5227" height="37.4068" rx="14.2613" transform="rotate(-6.24885 188.863 144.969)" fill="white"/><path fill-rule="evenodd" clip-rule="evenodd" d="M193.162 161.809C195.986 161.5 198.024 158.96 197.715 156.136C197.597 155.057 197.153 154.092 196.492 153.33C197.114 153.033 197.797 152.834 198.521 152.755C201.987 152.375 205.103 154.877 205.483 158.343L206.348 166.244C206.728 169.71 204.226 172.827 200.76 173.206C197.295 173.586 194.178 171.084 193.798 167.618L193.162 161.809Z" fill="#3D3D3D"/><path d="M183.141 182.457C183.421 185.017 185.724 186.865 188.284 186.585C190.843 186.304 192.691 184.002 192.411 181.442C192.131 178.883 187.039 173.431 186.846 173.453C186.652 173.474 182.861 179.898 183.141 182.457Z" fill="#86401F"/><path d="M177.092 116.115C176.808 104.201 186.237 94.3125 198.151 94.0288V94.0288L198.296 100.113C198.58 112.028 189.151 121.916 177.237 122.2V122.2L177.092 116.115Z" fill="#FFAB33"/><rect width="66.5504" height="28.3815" rx="14.1907" transform="matrix(0.770572 -0.637354 -0.637354 -0.770572 135.023 295.14)" fill="#A46648"/><path d="M159.786 104.117C162.088 115.811 173.433 123.425 185.126 121.123V121.123L183.951 115.152C181.649 103.458 170.304 95.8443 158.611 98.1456V98.1456L159.786 104.117Z" fill="#FFAB33"/><path d="M255.102 393.522C258.201 397.987 257.105 404.118 252.651 407.233L233.371 420.717C228.88 423.857 222.692 422.736 219.587 418.221L147.319 313.107C141.265 304.303 142.879 292.342 151.05 285.457L163.263 275.166C166.538 272.406 171.477 273.061 173.919 276.579L255.102 393.522Z" fill="#1CB0F6"/><path d="M135.393 339.939C128.108 349.794 130.461 363.727 140.579 370.643V370.643C150.414 377.364 163.833 374.865 170.587 365.053L208.401 310.126C214.836 300.78 212.452 287.984 203.084 281.58V281.58C193.982 275.359 181.589 277.453 175.035 286.318L135.393 339.939Z" fill="#1CB0F6"/><path d="M100.467 341.008C95.0737 337.056 94.0853 329.395 98.299 324.203L110.937 308.633C114.995 303.634 122.33 302.854 127.347 306.889L166.296 338.212C174.861 345.1 176.193 357.639 169.266 366.173V366.173C162.069 375.04 149.18 376.703 139.968 369.953L100.467 341.008Z" fill="#1CB0F6"/><path d="M154.191 272.11H205.151V282.971H154.191V272.11Z" fill="#FF4B4B"/><path d="M145.988 262.539C145.988 246.892 158.673 234.207 174.32 234.207H188.793C204.44 234.207 217.125 246.892 217.125 262.539V262.539C217.125 268.686 212.141 273.67 205.994 273.67H157.119C150.972 273.67 145.988 268.686 145.988 262.539V262.539Z" fill="#FFAB33"/><rect x="182.145" y="178.847" width="15.1644" height="9.60096" rx="4.80048" transform="rotate(-6.24885 182.145 178.847)" fill="#86401F"/><circle cx="121.554" cy="175.359" r="12.7214" transform="rotate(-6.24885 121.554 175.359)" fill="#A46648"/><rect x="62.7891" y="318.377" width="42.0586" height="13.5003" rx="6.75015" transform="rotate(-34.8214 62.7891 318.377)" fill="#FF4B4B"/><path d="M109.902 126.646L182.109 118.739L182.803 125.08L120.389 163.057L109.902 126.646Z" fill="#FFAB33"/><path d="M234.502 113.002L178.151 119.08L178.845 125.421L232.144 150.821L234.502 113.002Z" fill="#FFAB33"/><rect x="168.992" y="273.669" width="5.71167" height="9.34636" fill="#1CB0F6"/><rect x="194.953" y="273.669" width="5.71167" height="11.4233" fill="#1CB0F6"/><path d="M169.746 193.022C172.104 196.419 176.986 200.567 186.019 199.578" stroke="white" stroke-width="15.8978" stroke-linecap="round"/><path d="M178.707 172.137C175.32 170.08 166.32 167.225 157.419 172.263" stroke="#884727" stroke-width="4.67318" stroke-linecap="round" stroke-linejoin="round"/><path d="M178.923 172.022C176.997 168.559 170.588 161.626 160.36 161.6" stroke="#884727" stroke-width="4.67318" stroke-linecap="round" stroke-linejoin="round"/><rect x="194.492" y="233.691" width="59.9301" height="28.3815" rx="14.1907" transform="rotate(32.5913 194.492 233.691)" fill="#A46648"/><rect x="174.93" y="239.725" width="31.4868" height="9.92575" rx="4.96287" transform="rotate(-2.44066 174.93 239.725)" fill="#A46648"/><rect x="206.887" y="229.545" width="26.6094" height="9.92575" rx="4.96287" transform="rotate(81.9479 206.887 229.545)" fill="#A46648"/><path d="M147.716 323.279L151.057 318.685L176.915 356.054L173.195 361.29L147.716 323.279Z" fill="#0A9EE4"/></g></svg>